<svg width="135" height="46" viewBox="0 0 135 46" fill="none" xmlns="http://www.w3.org/2000/svg">
<rect width="135" height="46" fill="#FF500C"/>
<path d="M7.9722 24.4999C21.5487 24.4999 21.5487 7.52932 21.5487 7.52932C21.5487 24.4999 35.1251 24.4999 35.1251 24.4999C21.5487 24.4999 21.5487 41.4704 21.5487 41.4704C21.5487 24.4999 7.9722 24.4999 7.9722 24.4999Z" fill="white"/>
<path d="M27.7263 13.0148C34.5146 13.0148 34.5146 4.52949 34.5146 4.52949C34.5146 13.0148 41.3028 13.0148 41.3028 13.0148C34.5146 13.0148 34.5146 21.5 34.5146 21.5C34.5146 13.0148 27.7263 13.0148 27.7263 13.0148Z" fill="white"/>
<path d="M56.712 29.788V21.994C55.8 22.618 54.864 23.2 53.904 23.74C52.956 24.268 52.026 24.73 51.114 25.126C51.018 24.946 50.886 24.736 50.718 24.496C50.55 24.256 50.37 24.022 50.178 23.794C49.998 23.566 49.818 23.386 49.638 23.254C50.682 22.882 51.762 22.396 52.878 21.796C53.994 21.196 55.068 20.53 56.1 19.798C57.144 19.066 58.098 18.298 58.962 17.494C59.826 16.69 60.528 15.892 61.068 15.1L62.94 16.378C62.424 17.062 61.824 17.74 61.14 18.412C60.468 19.072 59.742 19.714 58.962 20.338V29.788H56.712ZM82.2 27.646C81.888 27.442 81.486 27.148 80.994 26.764C80.502 26.368 79.968 25.936 79.392 25.468C78.828 24.988 78.27 24.514 77.718 24.046C77.178 23.566 76.686 23.128 76.242 22.732C75.81 22.336 75.486 22.024 75.27 21.796C75.114 21.628 74.976 21.544 74.856 21.544C74.736 21.532 74.586 21.604 74.406 21.76C74.082 22.012 73.698 22.282 73.254 22.57C72.822 22.858 72.366 23.14 71.886 23.416C71.406 23.692 70.938 23.944 70.482 24.172C70.026 24.4 69.618 24.586 69.258 24.73L67.926 22.714C68.334 22.582 68.808 22.396 69.348 22.156C69.9 21.904 70.464 21.622 71.04 21.31C71.616 20.998 72.156 20.674 72.66 20.338C73.176 20.002 73.602 19.684 73.938 19.384C74.31 19.06 74.646 18.904 74.946 18.916C75.246 18.928 75.582 19.126 75.954 19.51C76.194 19.75 76.554 20.08 77.034 20.5C77.514 20.908 78.054 21.358 78.654 21.85C79.266 22.342 79.896 22.834 80.544 23.326C81.192 23.806 81.81 24.25 82.398 24.658C82.998 25.066 83.52 25.39 83.964 25.63C83.664 25.882 83.346 26.2 83.01 26.584C82.674 26.956 82.404 27.31 82.2 27.646ZM81.93 18.79C81.702 18.418 81.396 18.022 81.012 17.602C80.64 17.182 80.304 16.84 80.004 16.576L80.994 15.784C81.174 15.928 81.39 16.138 81.642 16.414C81.894 16.69 82.14 16.972 82.38 17.26C82.632 17.548 82.824 17.794 82.956 17.998L81.93 18.79ZM80.292 20.14C80.064 19.756 79.764 19.354 79.392 18.934C79.02 18.502 78.684 18.154 78.384 17.89L79.392 17.116C79.56 17.26 79.77 17.476 80.022 17.764C80.274 18.04 80.52 18.322 80.76 18.61C81 18.898 81.186 19.144 81.318 19.348L80.292 20.14ZM89.904 28.996L88.68 26.782C89.532 26.602 90.426 26.308 91.362 25.9C92.31 25.48 93.258 24.994 94.206 24.442C95.154 23.878 96.054 23.278 96.906 22.642C97.758 21.994 98.526 21.34 99.21 20.68C99.906 20.02 100.47 19.39 100.902 18.79C100.95 18.994 101.028 19.246 101.136 19.546C101.256 19.846 101.382 20.14 101.514 20.428C101.646 20.704 101.76 20.92 101.856 21.076C101.268 21.832 100.53 22.6 99.642 23.38C98.766 24.148 97.794 24.892 96.726 25.612C95.658 26.32 94.542 26.968 93.378 27.556C92.214 28.144 91.056 28.624 89.904 28.996ZM91.83 21.058C91.674 20.89 91.452 20.692 91.164 20.464C90.888 20.236 90.576 19.996 90.228 19.744C89.892 19.492 89.562 19.264 89.238 19.06C88.914 18.844 88.632 18.682 88.392 18.574L89.832 16.756C90.072 16.888 90.354 17.056 90.678 17.26C91.002 17.464 91.332 17.686 91.668 17.926C92.016 18.166 92.34 18.406 92.64 18.646C92.94 18.874 93.18 19.078 93.36 19.258L91.83 21.058ZM111.648 30.058V15.55H113.844V21.004L114.654 19.852C114.942 20.056 115.32 20.314 115.788 20.626C116.268 20.926 116.778 21.238 117.318 21.562C117.858 21.874 118.38 22.162 118.884 22.426C119.388 22.69 119.814 22.888 120.162 23.02C120.018 23.152 119.85 23.344 119.658 23.596C119.478 23.836 119.31 24.088 119.154 24.352C118.998 24.604 118.872 24.82 118.776 25C118.488 24.844 118.128 24.646 117.696 24.406C117.276 24.154 116.826 23.878 116.346 23.578C115.878 23.278 115.422 22.984 114.978 22.696C114.546 22.396 114.168 22.126 113.844 21.886V30.058H111.648Z" fill="white"/>
</svg>